<svg xmlns="http://www.w3.org/2000/svg" viewBox="0 0 960 960" xml:space="preserve">
  <title>Animated Sporkle! Logo</title>
  <path
    class="spark-top-center"
    d="M235.4 331.2c-.6 6.4 9.2 6.9 9.2.5-3-61 25.8-90 86.6-87.1 6.4.6 6.9-9.2.5-9.2-61 3-90-25.8-87.1-86.6.6-6.4-9.2-6.9-9.2-.5 3 61-25.8 90-86.6 87.1-6.4-.6-6.9 9.2-.5 9.2 61.1-3 90.2 26 87.1 87"
  />
  <path
    class="spork"
    d="M815.1 181c-18.4 20.9-51.5 64.8-48 68.8 3.4 4.1 47.7-31.1 69.7-49.3 0 21.5-2.7 43.4-9 63.8-12.1 39-37.7 72.9-67.2 102.7a162.2 162.2 0 0 1-54.4 35.5 121 121 0 0 1-49 8.8c-19.8-1-37.2-2.8-58.6-.3-9.7 1.2-14.5-3-68.5 56.1-94.6 103.2-263.4 300-315 351.5-19.4 19.5-35.7 12.5-52.1-3.9l-12-12c-16.4-16.3-22.3-31.5-2.9-51 51.5-51.4 248.2-220.2 351.4-314.7 59-54.1 54.8-58.7 55.9-68.3 2.5-21.6.7-39.3-.2-59.3-.5-16.8 2.5-33.6 8.8-49a162 162 0 0 1 35.5-54.4c29.9-29.5 63.8-55.1 102.8-67.2 20.4-6.4 42.2-9 63.7-9-18.1 22-53.4 66.2-49.3 69.7 4 3.4 47.8-29.8 68.6-48.2a3.3 3.3 0 1 1 4.7 4.7c-18.6 22.8-56.2 66.1-51 71.3 5.3 5.2 48.6-32.3 71.4-50.9a3.3 3.3 0 1 1 4.7 4.7z"
  />
  <path
    class="spark-top-right"
    d="M387.2 222.6c-.4 4 5.7 4.3 5.7.3-1.9-38.1 16.1-56.3 54.2-54.4 4 .3 4.2-5.8.2-5.8-38 2-56.2-16.1-54.4-54.1.4-4-5.7-4.3-5.7-.3 1.9 38.1-16.2 56.3-54.2 54.5-4-.4-4.3 5.7-.2 5.7 38.1-2 56.3 16.2 54.4 54.4"
  />
  <path
    class="spark-top-left"
    d="M146 413.5c-.3 3 4.5 3.3 4.5.2-1.5-30 12.6-44.2 42.5-42.8 3.1.3 3.3-4.5.2-4.5-30 1.5-44.2-12.6-42.8-42.5.3-3.1-4.4-3.4-4.4-.2 1.4 30-12.7 44.2-42.6 42.7-3.1-.3-3.3 4.5-.2 4.5 30-1.5 44.3 12.8 42.8 42.8"
  />
  <path
    class="spark-bottom-right"
    d="M814 546.5c.3-3.1-4.5-3.3-4.5-.2 1.5 30-12.6 44.2-42.5 42.8-3.1-.3-3.3 4.5-.2 4.5 30-1.5 44.2 12.6 42.8 42.5-.3 3.1 4.4 3.3 4.4.2-1.5-30 12.7-44.2 42.6-42.8 3.1.4 3.3-4.4.2-4.4-30 1.5-44.3-12.8-42.8-42.8"
  />
  <path
    class="spark-bottom-left"
    d="M572.8 737.4c.4-4-5.7-4.3-5.7-.3 1.9 38.1-16.2 56.3-54.2 54.4-4-.3-4.2 5.8-.2 5.8 38-2 56.2 16.1 54.4 54.1-.4 4 5.7 4.3 5.7.3-1.9-38.1 16.2-56.3 54.2-54.5 4 .4 4.3-5.7.2-5.7-38.1 2-56.3-16.2-54.4-54.4"
  />
  <path
    class="spark-bottom-center"
    d="M724.6 628.8c.6-6.4-9.2-6.9-9.2-.5 3 61-25.8 90-86.6 87.1-6.4-.6-6.9 9.2-.5 9.2 61-3 90 25.8 87.1 86.6-.6 6.4 9.2 6.9 9.2.5-3-61 25.8-90 86.6-87.1 6.4.6 6.9-9.2.5-9.2-61.2 3-90.2-26-87.1-87"
  />
  <style>
    .spark-top-left,
    .spark-top-center,
    .spark-top-right,
    .spork,
    .spark-bottom-left,
    .spark-bottom-center,
    .spark-bottom-right {
      fill: #D1CDC7;
    }
    .spark-top-left {
      animation: 3s linear infinite spark-top-left;
      transform-origin: 149px 369px;
    }
    .spark-top-center {
      animation: 3s linear infinite spark-top-center;
      transform-origin: 239px 241px;
    }
    .spark-top-right {
      animation: 3s linear infinite spark-top-right;
      transform-origin: 390px 167px;
    }
    .spork {
      animation: 3s ease infinite spork;
      transform-origin: 480px 480px;
    }
    .spark-bottom-left {
      animation: 3s linear infinite spark-bottom-left;
      transform-origin: 568px 792px;
    }
    .spark-bottom-center {
      animation: 3s linear infinite spark-bottom-center;
      transform-origin: 720px 720px;
    }
    .spark-bottom-right {
      animation: 3s linear infinite spark-bottom-right;
      transform-origin: 812px 592px;
    }

    @keyframes spork {
      50%  { transform: rotate(5deg); }
    }
    @keyframes spark-top-left {
      0%   { transform: scale(1.25); }
      25%  { transform: scale(1.50); }
      50%  { transform: scale(1.25); }
      75%  { transform: scale(1.00); }
      100% { transform: scale(1.25); }
    }
    @keyframes spark-top-center {
      0%   { transform: scale(0.50); }
      25%  { transform: scale(0.75); }
      50%  { transform: scale(1.00); }
      75%  { transform: scale(0.75); }
      100% { transform: scale(0.50); }
    }
    @keyframes spark-top-right {
      0%   { transform: scale(1.25); }
      25%  { transform: scale(1.00); }
      50%  { transform: scale(1.25); }
      75%  { transform: scale(1.50); }
      100% { transform: scale(1.25); }
    }
    @keyframes spark-bottom-left {
      0%   { transform: scale(1.25); }
      25%  { transform: scale(1.50); }
      50%  { transform: scale(1.25); }
      75%  { transform: scale(1.00); }
      100% { transform: scale(1.25); }
    }
    @keyframes spark-bottom-center {
      0%   { transform: scale(0.50); }
      25%  { transform: scale(0.75); }
      50%  { transform: scale(1.00); }
      75%  { transform: scale(0.75); }
      100% { transform: scale(0.50); }
    }
    @keyframes spark-bottom-right {
      0%   { transform: scale(1.25); }
      25%  { transform: scale(1.00); }
      50%  { transform: scale(1.25); }
      75%  { transform: scale(1.50); }
      100% { transform: scale(1.25); }
    }
  </style>
</svg>
