<svg viewBox="0 0 960 960" xmlns="http://www.w3.org/2000/svg" xml:space="preserve"><path d="M235.438 331.208c-.625 6.385 9.145 6.861 9.145.445-3.047-60.953 25.828-89.986 86.626-87.093 6.387.625 6.863-9.145.447-9.145-60.956 3.05-89.988-25.825-87.096-86.626.625-6.384-9.145-6.861-9.145-.444 3.05 60.956-25.828 89.986-86.625 87.093-6.385-.625-6.861 9.145-.445 9.145 61.102-3.056 90.126 25.968 87.07 87.07M815.106 181.073c-18.422 20.807-51.535 64.698-48.08 68.732 3.523 4.132 47.816-31.104 69.728-49.257.028 21.458-2.605 43.306-8.953 63.748-12.108 38.987-37.716 72.861-67.202 102.747-15.438 15.644-34.634 27.503-54.382 35.506a121.002 121.002 0 0 1-49.01 8.789c-19.808-.976-37.246-2.809-58.638-.292-9.63 1.133-14.425-2.987-68.514 56.052-94.56 103.225-263.387 300.006-314.893 351.518-19.463 19.461-35.811 12.454-52.161-3.896l-12.095-11.994c-16.348-16.35-22.25-31.494-2.786-50.955 51.506-51.513 248.195-220.236 351.418-314.802 59.039-54.089 54.727-58.686 55.856-68.316 2.54-21.578.689-39.234-.175-59.3a120.805 120.805 0 0 1 8.783-49.016c8-19.747 19.859-38.944 35.504-54.384 29.886-29.489 63.759-55.094 102.749-67.2 20.442-6.344 42.284-8.984 63.748-8.958-18.135 21.931-53.366 66.247-49.263 69.733 4.012 3.406 47.805-29.788 68.568-48.252a3.299 3.299 0 0 1 4.671 0 3.295 3.295 0 0 1 0 4.677c-18.576 22.824-56.138 66.181-50.938 71.386 5.211 5.205 48.563-32.356 71.393-50.938a3.3 3.3 0 0 1 4.671 0 3.29 3.29 0 0 1 .001 4.672zM387.192 222.614c-.39 3.989 5.716 4.287 5.716.278-1.905-38.098 16.141-56.244 54.144-54.436 3.991.39 4.287-5.716.278-5.716-38.098 1.905-56.244-16.141-54.436-54.144.39-3.991-5.716-4.287-5.716-.278 1.905 38.101-16.144 56.244-54.144 54.437-3.988-.39-4.287 5.716-.278 5.716 38.192-1.911 56.333 16.229 54.422 54.422M145.963 413.458c-.307 3.133 4.488 3.369 4.488.218-1.495-29.92 12.677-44.169 42.522-42.752 3.133.307 3.369-4.488.218-4.488-29.92 1.495-44.169-12.677-42.752-42.522.307-3.133-4.488-3.366-4.488-.218 1.495 29.92-12.677 44.172-42.522 42.752-3.133-.307-3.369 4.488-.218 4.488 29.995-1.498 44.241 12.746 42.741 42.741M814.039 546.541c.305-3.14-4.493-3.369-4.493-.225 1.498 29.923-12.678 44.178-42.52 42.756-3.134-.311-3.369 4.487-.218 4.487 29.922-1.492 44.166 12.683 42.749 42.524-.305 3.134 4.487 3.363 4.487.219-1.498-29.923 12.678-44.172 42.52-42.755 3.139.31 3.375-4.487.224-4.487-29.997 1.503-44.241-12.746-42.743-42.744M572.805 737.388c.394-3.995-5.713-4.293-5.713-.281 1.905 38.101-16.144 56.247-54.144 54.433-3.991-.39-4.29 5.717-.278 5.717 38.098-1.905 56.241 16.144 54.437 54.141-.394 3.994 5.713 4.293 5.713.281-1.905-38.101 16.144-56.241 54.144-54.434 3.991.391 4.29-5.716.278-5.716-38.189 1.911-56.33-16.229-54.422-54.422M724.559 628.791c.625-6.389-9.143-6.864-9.143-.448 3.048 60.952-25.83 89.985-86.628 87.093-6.385-.625-6.861 9.143-.445 9.143 60.956-3.041 89.983 25.831 87.091 86.635-.62 6.381 9.147 6.857 9.147.441-3.047-60.953 25.825-89.985 86.629-87.094 6.388.626 6.858-9.142.442-9.142-61.103 3.054-90.124-25.974-87.071-87.076" /></svg>
